<svg xmlns="http://www.w3.org/2000/svg"
    xmlns:xlink="http://www.w3.org/1999/xlink"
    width="500"
    zoomAndPan="magnify"
    viewBox="0 0 375 374.999991"
    height="500"
    preserveAspectRatio="xMidYMid meet"
    version="1.0">
    <defs>
        <g />
        <clipPath id="4ddaa3f16b">
            <path
                d="M 99 25 L 258 25 L 258 183 L 99 183 Z M 99 25 "
                clip-rule="nonzero" />
        </clipPath>
        <clipPath id="e50f696384">
            <path
                d="M 61.566406 122.910156 L 197.835938 -13.359375 L 269.472656 58.273438 L 133.199219 194.542969 Z M 61.566406 122.910156 "
                clip-rule="nonzero" />
        </clipPath>
        <clipPath id="ced0277be4">
            <path
                d="M 153.039062 174.707031 C 150.464844 177.28125 147.355469 179.316406 143.707031 180.820312 C 129.339844 186.609375 113.039062 179.746094 107.25 165.375 C 91.699219 127.308594 100.492188 83.984375 129.554688 54.925781 C 158.613281 25.863281 201.9375 17.070312 240.113281 32.511719 C 254.484375 38.300781 261.453125 54.710938 255.554688 68.972656 C 249.765625 83.339844 233.359375 90.3125 219.09375 84.414062 C 201.9375 77.550781 182.3125 81.519531 169.230469 94.601562 C 156.148438 107.683594 152.289062 127.199219 159.152344 144.359375 C 163.546875 154.976562 160.757812 166.984375 153.039062 174.707031 Z M 153.039062 174.707031 "
                clip-rule="nonzero" />
        </clipPath>
        <clipPath id="3fcaeef412">
            <path
                d="M 117 127 L 276 127 L 276 286 L 117 286 Z M 117 127 "
                clip-rule="nonzero" />
        </clipPath>
        <clipPath id="e63f33bca9">
            <path
                d="M 313.421875 187.648438 L 177.148438 323.917969 L 105.515625 252.285156 L 241.789062 116.015625 Z M 313.421875 187.648438 "
                clip-rule="nonzero" />
        </clipPath>
        <clipPath id="6eec88e4c6">
            <path
                d="M 221.949219 135.851562 C 224.523438 133.277344 227.632812 131.242188 231.277344 129.738281 C 245.648438 123.949219 261.949219 130.8125 267.738281 145.183594 C 283.289062 183.25 274.492188 226.574219 245.433594 255.632812 C 216.371094 284.695312 173.050781 293.488281 134.875 278.046875 C 120.503906 272.257812 113.535156 255.847656 119.429688 241.585938 C 125.222656 227.21875 141.628906 220.246094 155.890625 226.144531 C 173.050781 233.007812 192.671875 229.039062 205.757812 215.957031 C 218.839844 202.875 222.699219 183.359375 215.835938 166.199219 C 211.441406 155.582031 214.226562 143.574219 221.949219 135.851562 Z M 221.949219 135.851562 "
                clip-rule="nonzero" />
        </clipPath>
    </defs>
    <g clip-path="url(#4ddaa3f16b)">
        <g clip-path="url(#e50f696384)">
            <g clip-path="url(#ced0277be4)">
                <path
                    fill="#004aad"
                    d="M 61.566406 122.910156 L 197.558594 -13.078125 L 269.191406 58.554688 L 133.199219 194.542969 Z M 61.566406 122.910156 "
                    fill-opacity="1"
                    fill-rule="nonzero" />
            </g>
        </g>
    </g>
    <g clip-path="url(#3fcaeef412)">
        <g clip-path="url(#e63f33bca9)">
            <g clip-path="url(#6eec88e4c6)">
                <path
                    fill="#38b6ff"
                    d="M 313.421875 187.648438 L 177.429688 323.640625 L 105.796875 252.003906 L 241.789062 116.015625 Z M 313.421875 187.648438 "
                    fill-opacity="1"
                    fill-rule="nonzero" />
            </g>
        </g>
    </g>
    <g
        fill="#000000"
        fill-opacity="1">
        <g transform="translate(119.340569, 332.249921)">
            <g>
                <path d="M 2.703125 -21 L 6.75 -21 L 16.953125 -7.953125 L 16.953125 -21 L 21.453125 -21 L 21.453125 0 L 17.40625 0 L 7.203125 -13.046875 L 7.203125 0 L 2.703125 0 Z M 2.703125 -21 " />
            </g>
        </g>
    </g>
    <g
        fill="#000000"
        fill-opacity="1">
        <g transform="translate(148.281145, 332.249921)">
            <g>
                <path d="M 10.34375 -16.796875 L 0.75 -16.796875 L 0.75 -21 L 15.15625 -21 L 15.15625 -17.09375 L 6.90625 0 L 2.25 0 Z M 10.34375 -16.796875 " />
            </g>
        </g>
    </g>
    <g
        fill="#000000"
        fill-opacity="1">
        <g transform="translate(168.824973, 332.249921)">
            <g />
        </g>
    </g>
    <g
        fill="#000000"
        fill-opacity="1">
        <g transform="translate(179.92248, 332.249921)">
            <g>
                <path d="M 0.453125 -21 L 5.25 -21 L 10.734375 -5.546875 L 10.859375 -5.546875 L 16.34375 -21 L 21.15625 -21 L 13.34375 0 L 8.25 0 Z M 0.453125 -21 " />
            </g>
        </g>
    </g>
    <g
        fill="#000000"
        fill-opacity="1">
        <g transform="translate(206.314048, 332.249921)">
            <g>
                <path d="M 2.703125 -21 L 11.546875 -21 C 12.671875 -21 13.691406 -20.820312 14.609375 -20.46875 C 15.523438 -20.125 16.3125 -19.632812 16.96875 -19 C 17.632812 -18.375 18.144531 -17.628906 18.5 -16.765625 C 18.863281 -15.910156 19.046875 -14.972656 19.046875 -13.953125 C 19.046875 -12.929688 18.863281 -11.988281 18.5 -11.125 C 18.144531 -10.269531 17.632812 -9.523438 16.96875 -8.890625 C 16.3125 -8.265625 15.523438 -7.773438 14.609375 -7.421875 C 13.691406 -7.078125 12.671875 -6.90625 11.546875 -6.90625 L 7.203125 -6.90625 L 7.203125 0 L 2.703125 0 Z M 11.40625 -11.09375 C 12.300781 -11.09375 13.023438 -11.359375 13.578125 -11.890625 C 14.128906 -12.421875 14.40625 -13.109375 14.40625 -13.953125 C 14.40625 -14.785156 14.128906 -15.46875 13.578125 -16 C 13.023438 -16.53125 12.300781 -16.796875 11.40625 -16.796875 L 7.203125 -16.796875 L 7.203125 -11.09375 Z M 11.40625 -11.09375 " />
            </g>
        </g>
    </g>
    <g
        fill="#000000"
        fill-opacity="1">
        <g transform="translate(231.506074, 332.249921)">
            <g>
                <path d="M 2.703125 -21 L 6.75 -21 L 16.953125 -7.953125 L 16.953125 -21 L 21.453125 -21 L 21.453125 0 L 17.40625 0 L 7.203125 -13.046875 L 7.203125 0 L 2.703125 0 Z M 2.703125 -21 " />
            </g>
        </g>
    </g>
</svg>